<svg xmlns="http://www.w3.org/2000/svg" width="171" height="26" viewBox="0 0 171 26">
    <g fill="none" fill-rule="evenodd">
        <path d="M-635-52H805V78H-635z"/>
        <path fill="#615D59" d="M164.14 12.383l6.037-8.924h-6.818l-2.665 3.917-2.697-3.917h-6.819l6.109 8.925-6.375 9.368h6.891l2.93-4.332 2.965 4.332h6.891l-6.449-9.369zm-26.87 9.369h12.782v-4.998h-6.086v-1.795h5.12v-4.757h-5.12V8.457h5.892V3.459H137.27v18.293zm-5.321-13.06h3.664V3.459h-13.974v5.233h3.663v13.06h6.647V8.692zm-11.292 1.123c0-4.61-3.492-6.356-7.617-6.356h-8.03v18.293h6.5v-5.87h.121l2.912 5.87h7.667l-3.98-5.945c-.362-.532-.776-.825-1.115-1.091v-.147c2.476-.824 3.542-1.988 3.542-4.754zm-6.133-.071c0 1.462-1.242 1.644-2.488 1.644h-.525v-3.34h.58c1.3 0 2.433.183 2.433 1.696zm-11.681 4.536V3.46h-6.648v10.188c0 1.431-.049 2.694-1.82 2.694-1.77 0-1.82-1.263-1.82-2.694V3.46H85.91v10.82c0 5.338 3.347 7.764 8.466 7.764 5.12 0 8.468-2.426 8.468-7.763zM80.588 8.692h3.663V3.459H70.277v5.233h3.662v13.06h6.649V8.692zm-8.502 13.06L65.56 3.459h-7.351l-6.357 18.293h7.037l.533-2.281h5.022l.608 2.281h7.034zm-8.807-6.625h-2.668l1.213-5.579h.192l1.263 5.58zm-19.056 6.625h6.358V3.459h-6.358v9.522L38.619 3.46h-6.38v18.293h6.355v-9.25l5.629 9.25zM0 25.29h25.29V0H0v25.29zm3.192-3.832l6.146-9.034-5.89-8.607h6.576l2.6 3.778 2.57-3.778h6.576l-5.822 8.606 6.083 9.035h-6.51l-2.858-4.178-2.826 4.178H3.192z"/>
    </g>
</svg>
